<mxfile host="65bd71144e">
    <diagram id="tMwVYfzn25PWMmUZTQfm" name="Page-1">
        <mxGraphModel dx="1606" dy="571" grid="1" gridSize="10" guides="1" tooltips="1" connect="1" arrows="1" fold="1" page="1" pageScale="1" pageWidth="850" pageHeight="1100" math="0" shadow="0">
            <root>
                <mxCell id="0"/>
                <mxCell id="1" parent="0"/>
                <mxCell id="17" value="" style="edgeStyle=none;html=1;entryX=-0.047;entryY=0.547;entryDx=0;entryDy=0;entryPerimeter=0;exitX=1;exitY=0.3333333333333333;exitDx=0;exitDy=0;exitPerimeter=0;" parent="1" source="2" target="57" edge="1">
                    <mxGeometry relative="1" as="geometry"/>
                </mxCell>
                <mxCell id="18" value="Επιλογή &quot;Ιστορικό Διαδρομών&quot;" style="edgeLabel;html=1;align=center;verticalAlign=middle;resizable=0;points=[];" parent="17" vertex="1" connectable="0">
                    <mxGeometry x="-0.3549" y="-3" relative="1" as="geometry">
                        <mxPoint x="27" y="-31" as="offset"/>
                    </mxGeometry>
                </mxCell>
                <mxCell id="26" style="edgeStyle=none;html=1;entryX=-0.034;entryY=0.489;entryDx=0;entryDy=0;entryPerimeter=0;" parent="1" source="2" target="104" edge="1">
                    <mxGeometry relative="1" as="geometry"/>
                </mxCell>
                <mxCell id="66" value="Επιλογή διαδρομής" style="edgeStyle=none;html=1;exitX=1;exitY=0.3333333333333333;exitDx=0;exitDy=0;exitPerimeter=0;entryX=-0.022;entryY=0.504;entryDx=0;entryDy=0;entryPerimeter=0;" parent="1" source="2" target="10" edge="1">
                    <mxGeometry relative="1" as="geometry"/>
                </mxCell>
                <mxCell id="2" value="Πελάτης" style="shape=umlActor;verticalLabelPosition=bottom;verticalAlign=top;html=1;" parent="1" vertex="1">
                    <mxGeometry x="-350" y="520" width="30" height="60" as="geometry"/>
                </mxCell>
                <mxCell id="14" value="" style="edgeStyle=none;html=1;entryX=0.526;entryY=0.065;entryDx=0;entryDy=0;entryPerimeter=0;" parent="1" source="8" target="15" edge="1">
                    <mxGeometry relative="1" as="geometry">
                        <mxPoint x="725" y="590" as="targetPoint"/>
                    </mxGeometry>
                </mxCell>
                <mxCell id="46" value="Εντός Πόλης" style="edgeLabel;html=1;align=center;verticalAlign=middle;resizable=0;points=[];" parent="14" vertex="1" connectable="0">
                    <mxGeometry x="-0.3011" y="2" relative="1" as="geometry">
                        <mxPoint as="offset"/>
                    </mxGeometry>
                </mxCell>
                <mxCell id="43" style="edgeStyle=none;html=1;fontSize=12;fillColor=none;strokeColor=#b85450;strokeWidth=2;" parent="1" source="8" target="42" edge="1">
                    <mxGeometry relative="1" as="geometry"/>
                </mxCell>
                <mxCell id="45" value="Εκτός πόλης" style="edgeLabel;html=1;align=center;verticalAlign=middle;resizable=0;points=[];" parent="43" vertex="1" connectable="0">
                    <mxGeometry x="0.1767" y="1" relative="1" as="geometry">
                        <mxPoint as="offset"/>
                    </mxGeometry>
                </mxCell>
                <mxCell id="48" style="edgeStyle=none;html=1;entryX=0;entryY=0.5;entryDx=0;entryDy=0;entryPerimeter=0;fontSize=12;fillColor=none;strokeColor=#b85450;strokeWidth=2;" parent="1" source="8" target="47" edge="1">
                    <mxGeometry relative="1" as="geometry"/>
                </mxCell>
                <mxCell id="49" value="Μετακίνηση Με Ταξί" style="edgeLabel;html=1;align=center;verticalAlign=middle;resizable=0;points=[];" parent="48" vertex="1" connectable="0">
                    <mxGeometry x="-0.3" relative="1" as="geometry">
                        <mxPoint x="11" as="offset"/>
                    </mxGeometry>
                </mxCell>
                <mxCell id="8" value="Έλεγχος τύπου διαδρομής" style="ellipse;shape=umlControl;whiteSpace=wrap;html=1;" parent="1" vertex="1">
                    <mxGeometry x="360" y="460" width="70" height="80" as="geometry"/>
                </mxCell>
                <mxCell id="105" value="" style="edgeStyle=none;html=1;" parent="1" source="10" target="103" edge="1">
                    <mxGeometry relative="1" as="geometry"/>
                </mxCell>
                <mxCell id="10" value="Ιστορικό Διαδρομών" style="shape=umlBoundary;whiteSpace=wrap;html=1;" parent="1" vertex="1">
                    <mxGeometry x="-190" y="500" width="100" height="80" as="geometry"/>
                </mxCell>
                <mxCell id="15" value="Εμφάνιση επιλογών αξιολόγης οχήματος" style="ellipse;shape=umlControl;whiteSpace=wrap;html=1;fillColor=default;strokeColor=default;strokeWidth=1;" parent="1" vertex="1">
                    <mxGeometry x="355" y="675" width="75" height="90" as="geometry"/>
                </mxCell>
                <mxCell id="30" value="Συμπλήρωση και&lt;br&gt;Υποβολή" style="edgeStyle=none;html=1;entryX=0.486;entryY=0.138;entryDx=0;entryDy=0;entryPerimeter=0;" parent="1" source="104" target="29" edge="1">
                    <mxGeometry relative="1" as="geometry">
                        <mxPoint x="-1" y="770" as="sourcePoint"/>
                    </mxGeometry>
                </mxCell>
                <mxCell id="32" value="Εντός ορίου" style="edgeStyle=none;html=1;" parent="1" source="29" target="31" edge="1">
                    <mxGeometry relative="1" as="geometry"/>
                </mxCell>
                <mxCell id="85" value="Εκτός Ορίου" style="edgeStyle=none;html=1;fontSize=12;fillColor=none;strokeColor=#b85450;strokeWidth=2;" parent="1" source="29" target="51" edge="1">
                    <mxGeometry relative="1" as="geometry"/>
                </mxCell>
                <mxCell id="29" value="Έλεγχος κλίμακας αξιολόγησης&amp;nbsp;" style="ellipse;shape=umlControl;whiteSpace=wrap;html=1;" parent="1" vertex="1">
                    <mxGeometry x="-35" y="850" width="85" height="90" as="geometry"/>
                </mxCell>
                <mxCell id="34" value="Εντός ορίου" style="edgeStyle=none;html=1;" parent="1" source="31" target="33" edge="1">
                    <mxGeometry relative="1" as="geometry"/>
                </mxCell>
                <mxCell id="88" value="Εκτός ορίου" style="edgeStyle=none;html=1;fontSize=12;fillColor=none;strokeColor=#b85450;strokeWidth=2;" parent="1" source="31" target="54" edge="1">
                    <mxGeometry relative="1" as="geometry"/>
                </mxCell>
                <mxCell id="31" value="Έλεγχος μεγέθους σχολίων" style="ellipse;shape=umlControl;whiteSpace=wrap;html=1;" parent="1" vertex="1">
                    <mxGeometry x="-27.5" y="1010" width="70" height="80" as="geometry"/>
                </mxCell>
                <mxCell id="36" value="" style="edgeStyle=none;html=1;" parent="1" source="33" target="35" edge="1">
                    <mxGeometry relative="1" as="geometry"/>
                </mxCell>
                <mxCell id="102" value="" style="edgeStyle=none;html=1;" parent="1" source="33" target="101" edge="1">
                    <mxGeometry relative="1" as="geometry"/>
                </mxCell>
                <mxCell id="33" value="Αποθήκευση" style="ellipse;shape=umlControl;whiteSpace=wrap;html=1;" parent="1" vertex="1">
                    <mxGeometry x="140" y="1010" width="70" height="80" as="geometry"/>
                </mxCell>
                <mxCell id="35" value="Βάση Δεδομένων" style="ellipse;shape=umlEntity;whiteSpace=wrap;html=1;" parent="1" vertex="1">
                    <mxGeometry x="250" y="1010" width="80" height="80" as="geometry"/>
                </mxCell>
                <mxCell id="84" style="edgeStyle=none;html=1;entryX=0.133;entryY=0.289;entryDx=0;entryDy=0;entryPerimeter=0;fontSize=12;fillColor=none;strokeColor=#b85450;strokeWidth=2;" parent="1" source="42" target="15" edge="1">
                    <mxGeometry relative="1" as="geometry">
                        <mxPoint x="580" y="690" as="targetPoint"/>
                    </mxGeometry>
                </mxCell>
                <mxCell id="42" value="Εμφάνισε πεδίο αξιολόγησης γκαράζ" style="ellipse;shape=umlControl;whiteSpace=wrap;html=1;strokeColor=#b85450;fillColor=none;strokeWidth=2;" parent="1" vertex="1">
                    <mxGeometry x="210" y="590" width="85" height="90" as="geometry"/>
                </mxCell>
                <mxCell id="50" style="edgeStyle=none;html=1;entryX=0.84;entryY=0.233;entryDx=0;entryDy=0;entryPerimeter=0;fontSize=12;fillColor=none;strokeColor=#b85450;strokeWidth=2;" parent="1" source="47" target="15" edge="1">
                    <mxGeometry relative="1" as="geometry"/>
                </mxCell>
                <mxCell id="47" value="Εμφάνισε πεδίο αξιολόγησης οδηγού ταξί" style="ellipse;shape=umlControl;whiteSpace=wrap;html=1;strokeColor=#b85450;fillColor=none;strokeWidth=2;" parent="1" vertex="1">
                    <mxGeometry x="520" y="570" width="90" height="100" as="geometry"/>
                </mxCell>
                <mxCell id="90" value="" style="edgeStyle=none;html=1;fontSize=12;fillColor=none;strokeColor=#b85450;strokeWidth=2;entryX=0.556;entryY=1.05;entryDx=0;entryDy=0;entryPerimeter=0;" parent="1" source="51" target="89" edge="1">
                    <mxGeometry relative="1" as="geometry"/>
                </mxCell>
                <mxCell id="51" value="Εμφάνισε" style="ellipse;shape=umlControl;whiteSpace=wrap;html=1;strokeColor=#b85450;fillColor=none;strokeWidth=2;" parent="1" vertex="1">
                    <mxGeometry x="240" y="855" width="70" height="80" as="geometry"/>
                </mxCell>
                <mxCell id="92" value="" style="edgeStyle=none;html=1;fontSize=12;fillColor=none;strokeColor=#b85450;strokeWidth=2;" parent="1" source="54" target="91" edge="1">
                    <mxGeometry relative="1" as="geometry"/>
                </mxCell>
                <mxCell id="54" value="Εμφάνισε" style="ellipse;shape=umlControl;whiteSpace=wrap;html=1;strokeColor=#b85450;fillColor=none;strokeWidth=2;" parent="1" vertex="1">
                    <mxGeometry x="-215" y="1010" width="70" height="80" as="geometry"/>
                </mxCell>
                <mxCell id="60" value="" style="edgeStyle=none;html=1;" parent="1" source="57" target="59" edge="1">
                    <mxGeometry relative="1" as="geometry"/>
                </mxCell>
                <mxCell id="57" value="Αρχική οθόνη" style="shape=umlBoundary;whiteSpace=wrap;html=1;" parent="1" vertex="1">
                    <mxGeometry x="-230" y="370" width="100" height="80" as="geometry"/>
                </mxCell>
                <mxCell id="62" value="" style="edgeStyle=none;html=1;" parent="1" source="59" target="10" edge="1">
                    <mxGeometry relative="1" as="geometry"/>
                </mxCell>
                <mxCell id="73" style="edgeStyle=none;html=1;entryX=0;entryY=0.5;entryDx=0;entryDy=0;" parent="1" source="59" target="72" edge="1">
                    <mxGeometry relative="1" as="geometry"/>
                </mxCell>
                <mxCell id="59" value="Εμφάνισε" style="ellipse;shape=umlControl;whiteSpace=wrap;html=1;" parent="1" vertex="1">
                    <mxGeometry x="-42.5" y="320" width="70" height="80" as="geometry"/>
                </mxCell>
                <mxCell id="71" value="Ναι" style="edgeStyle=none;html=1;fontSize=12;fillColor=none;strokeColor=#b85450;strokeWidth=2;" parent="1" source="67" target="70" edge="1">
                    <mxGeometry relative="1" as="geometry"/>
                </mxCell>
                <mxCell id="74" style="edgeStyle=none;html=1;entryX=1;entryY=0.5;entryDx=0;entryDy=0;" parent="1" source="67" target="72" edge="1">
                    <mxGeometry relative="1" as="geometry"/>
                </mxCell>
                <mxCell id="82" value="Όχι" style="edgeStyle=none;html=1;" parent="1" source="67" target="8" edge="1">
                    <mxGeometry relative="1" as="geometry"/>
                </mxCell>
                <mxCell id="67" value="Έχει ήδη αξιολογηθεί;" style="ellipse;shape=umlControl;whiteSpace=wrap;html=1;" parent="1" vertex="1">
                    <mxGeometry x="180" y="460" width="70" height="80" as="geometry"/>
                </mxCell>
                <mxCell id="70" value="Εμφάνισε&lt;br&gt;αξιολόγηση" style="ellipse;shape=umlControl;whiteSpace=wrap;html=1;fillColor=none;strokeColor=#b85450;strokeWidth=2;" parent="1" vertex="1">
                    <mxGeometry x="315" y="320" width="70" height="80" as="geometry"/>
                </mxCell>
                <mxCell id="72" value="Service" style="ellipse;shape=umlEntity;whiteSpace=wrap;html=1;" parent="1" vertex="1">
                    <mxGeometry x="145" y="320" width="80" height="80" as="geometry"/>
                </mxCell>
                <mxCell id="89" value="Μήνυμα σφάλματος" style="shape=umlBoundary;whiteSpace=wrap;html=1;fillColor=none;strokeColor=#b85450;strokeWidth=2;" parent="1" vertex="1">
                    <mxGeometry x="250" y="740" width="90" height="80" as="geometry"/>
                </mxCell>
                <mxCell id="91" value="Μήνυμα σφάλματος" style="shape=umlBoundary;whiteSpace=wrap;html=1;fillColor=none;strokeColor=#b85450;strokeWidth=2;" parent="1" vertex="1">
                    <mxGeometry x="-230" y="865" width="100" height="75" as="geometry"/>
                </mxCell>
                <mxCell id="95" value="Εμφάνισε" style="ellipse;shape=umlControl;whiteSpace=wrap;html=1;strokeColor=#b85450;fillColor=none;strokeWidth=2;" parent="1" vertex="1">
                    <mxGeometry x="-210" y="730" width="70" height="80" as="geometry"/>
                </mxCell>
                <mxCell id="96" style="edgeStyle=none;html=1;fontSize=12;fillColor=none;strokeColor=#b85450;strokeWidth=2;exitX=0.56;exitY=0.013;exitDx=0;exitDy=0;exitPerimeter=0;entryX=0.5;entryY=1.063;entryDx=0;entryDy=0;entryPerimeter=0;" parent="1" source="91" target="95" edge="1">
                    <mxGeometry relative="1" as="geometry">
                        <mxPoint x="-200" y="840" as="sourcePoint"/>
                        <mxPoint x="-325.02" y="801.06" as="targetPoint"/>
                    </mxGeometry>
                </mxCell>
                <mxCell id="97" style="edgeStyle=none;html=1;fontSize=12;fillColor=none;strokeColor=#b85450;strokeWidth=2;exitX=0.929;exitY=0.3;exitDx=0;exitDy=0;exitPerimeter=0;entryX=-0.023;entryY=0.504;entryDx=0;entryDy=0;entryPerimeter=0;" parent="1" source="95" target="104" edge="1">
                    <mxGeometry relative="1" as="geometry">
                        <mxPoint x="-65" y="809.9950000000001" as="sourcePoint"/>
                        <mxPoint x="-64" y="766.01" as="targetPoint"/>
                    </mxGeometry>
                </mxCell>
                <mxCell id="98" value="Εμφάνισε" style="ellipse;shape=umlControl;whiteSpace=wrap;html=1;strokeColor=#b85450;fillColor=none;strokeWidth=2;" parent="1" vertex="1">
                    <mxGeometry x="120" y="740" width="70" height="80" as="geometry"/>
                </mxCell>
                <mxCell id="99" value="" style="edgeStyle=none;html=1;fontSize=12;fillColor=none;strokeColor=#b85450;strokeWidth=2;exitX=-0.043;exitY=0.438;exitDx=0;exitDy=0;exitPerimeter=0;" parent="1" source="98" target="104" edge="1">
                    <mxGeometry relative="1" as="geometry">
                        <mxPoint x="108.89734339034705" y="878.109670354193" as="sourcePoint"/>
                        <mxPoint x="141.10333333333324" y="830" as="targetPoint"/>
                    </mxGeometry>
                </mxCell>
                <mxCell id="100" value="" style="edgeStyle=none;html=1;fontSize=12;fillColor=none;strokeColor=#b85450;strokeWidth=2;entryX=1;entryY=0.5;entryDx=0;entryDy=0;entryPerimeter=0;exitX=-0.022;exitY=0.5;exitDx=0;exitDy=0;exitPerimeter=0;" parent="1" source="89" target="98" edge="1">
                    <mxGeometry relative="1" as="geometry">
                        <mxPoint x="236.12734339034705" y="938.109670354193" as="sourcePoint"/>
                        <mxPoint x="268.33333333333326" y="890" as="targetPoint"/>
                    </mxGeometry>
                </mxCell>
                <mxCell id="101" value="Service" style="ellipse;shape=umlEntity;whiteSpace=wrap;html=1;" parent="1" vertex="1">
                    <mxGeometry x="140" y="910" width="65" height="70" as="geometry"/>
                </mxCell>
                <mxCell id="106" value="" style="edgeStyle=none;html=1;" parent="1" source="103" target="104" edge="1">
                    <mxGeometry relative="1" as="geometry"/>
                </mxCell>
                <mxCell id="103" value="Εμφάνισε" style="ellipse;shape=umlControl;whiteSpace=wrap;html=1;" parent="1" vertex="1">
                    <mxGeometry x="-27.5" y="490" width="70" height="80" as="geometry"/>
                </mxCell>
                <mxCell id="107" value="" style="edgeStyle=none;html=1;exitX=0.921;exitY=0.17;exitDx=0;exitDy=0;exitPerimeter=0;" parent="1" source="104" target="67" edge="1">
                    <mxGeometry relative="1" as="geometry"/>
                </mxCell>
                <mxCell id="104" value="Οθόνη Αξιολόγησης" style="shape=umlBoundary;whiteSpace=wrap;html=1;" parent="1" vertex="1">
                    <mxGeometry x="-42.5" y="620" width="100" height="80" as="geometry"/>
                </mxCell>
            </root>
        </mxGraphModel>
    </diagram>
</mxfile>